<svg id="visual" viewBox="0 0 1366 768" width="1366" height="768" xmlns="http://www.w3.org/2000/svg" xmlns:xlink="http://www.w3.org/1999/xlink" version="1.1"><g stroke-width="1" stroke-linejoin="bevel"><path d="M647 468.8L568.3 584.4L731 606.4Z" fill="#001122" stroke="#00152b"></path><path d="M568.3 584.4L659 768L731 606.4Z" fill="#001122" stroke="#00152b"></path><path d="M731 606.4L794.8 398.2L647 468.8Z" fill="#001122" stroke="#00152b"></path><path d="M568.3 584.4L592.3 768L659 768Z" fill="#001122" stroke="#00152b"></path><path d="M497.3 327.2L471.3 430.8L647 468.8Z" fill="#001122" stroke="#00152b"></path><path d="M647 468.8L471.3 430.8L568.3 584.4Z" fill="#001122" stroke="#00152b"></path><path d="M568.3 584.4L401.5 768L592.3 768Z" fill="#001122" stroke="#00152b"></path><path d="M825.8 768L882.8 606.4L731 606.4Z" fill="#001122" stroke="#00152b"></path><path d="M731 606.4L882.8 606.4L794.8 398.2Z" fill="#001122" stroke="#00152b"></path><path d="M659 768L825.8 768L731 606.4Z" fill="#001122" stroke="#00152b"></path><path d="M794.8 398.2L656 283.2L647 468.8Z" fill="#001122" stroke="#00152b"></path><path d="M656 283.2L497.3 327.2L647 468.8Z" fill="#001122" stroke="#00152b"></path><path d="M882.8 606.4L894.8 394.8L794.8 398.2Z" fill="#001122" stroke="#00152b"></path><path d="M794.8 398.2L753.8 161.6L656 283.2Z" fill="#001122" stroke="#00152b"></path><path d="M497.3 327.2L438.5 362.8L471.3 430.8Z" fill="#001122" stroke="#00152b"></path><path d="M471.3 430.8L332.5 548.4L568.3 584.4Z" fill="#001122" stroke="#00152b"></path><path d="M944.5 768L961.5 611.4L882.8 606.4Z" fill="#001122" stroke="#00152b"></path><path d="M882.8 606.4L961.5 611.4L894.8 394.8Z" fill="#001122" stroke="#00152b"></path><path d="M438.5 362.8L332.5 548.4L471.3 430.8Z" fill="#001122" stroke="#00152b"></path><path d="M332.5 548.4L401.5 768L568.3 584.4Z" fill="#001122" stroke="#00152b"></path><path d="M825.8 768L944.5 768L882.8 606.4Z" fill="#001122" stroke="#00152b"></path><path d="M1069.5 400.8L994.5 349.2L894.8 394.8Z" fill="#001122" stroke="#00152b"></path><path d="M894.8 394.8L753.8 161.6L794.8 398.2Z" fill="#001122" stroke="#00152b"></path><path d="M1069.5 400.8L894.8 394.8L961.5 611.4Z" fill="#001122" stroke="#00152b"></path><path d="M994.5 349.2L753.8 161.6L894.8 394.8Z" fill="#001122" stroke="#00152b"></path><path d="M656 283.2L517.3 167.6L497.3 327.2Z" fill="#001122" stroke="#00152b"></path><path d="M497.3 327.2L313.5 225.2L438.5 362.8Z" fill="#001122" stroke="#00152b"></path><path d="M662 108.6L517.3 167.6L656 283.2Z" fill="#001122" stroke="#00152b"></path><path d="M438.5 362.8L125.8 323.2L332.5 548.4Z" fill="#001122" stroke="#00152b"></path><path d="M1181.3 634.4L1069.5 400.8L961.5 611.4Z" fill="#001122" stroke="#00152b"></path><path d="M994.5 349.2L1025.5 163.6L753.8 161.6Z" fill="#001122" stroke="#00152b"></path><path d="M753.8 161.6L662 108.6L656 283.2Z" fill="#001122" stroke="#00152b"></path><path d="M517.3 167.6L313.5 225.2L497.3 327.2Z" fill="#001122" stroke="#00152b"></path><path d="M292.5 211.6L313.5 225.2L322.5 0Z" fill="#001122" stroke="#00152b"></path><path d="M332.5 548.4L196.8 709.4L401.5 768Z" fill="#001122" stroke="#00152b"></path><path d="M84.8 458.8L196.8 709.4L332.5 548.4Z" fill="#001122" stroke="#00152b"></path><path d="M322.5 0L313.5 225.2L517.3 167.6Z" fill="#001122" stroke="#00152b"></path><path d="M125.8 323.2L84.8 458.8L332.5 548.4Z" fill="#001122" stroke="#00152b"></path><path d="M944.5 768L1181.3 634.4L961.5 611.4Z" fill="#001122" stroke="#00152b"></path><path d="M785.8 0L653 0L662 108.6Z" fill="#001122" stroke="#00152b"></path><path d="M1154.3 331.2L1025.5 163.6L994.5 349.2Z" fill="#001122" stroke="#00152b"></path><path d="M1154.3 331.2L994.5 349.2L1069.5 400.8Z" fill="#001122" stroke="#00152b"></path><path d="M1181.3 634.4L1189.3 444.8L1069.5 400.8Z" fill="#001122" stroke="#00152b"></path><path d="M1189.3 444.8L1154.3 331.2L1069.5 400.8Z" fill="#001122" stroke="#00152b"></path><path d="M785.8 0L662 108.6L753.8 161.6Z" fill="#001122" stroke="#00152b"></path><path d="M662 108.6L474.3 0L517.3 167.6Z" fill="#001122" stroke="#00152b"></path><path d="M1025.5 163.6L785.8 0L753.8 161.6Z" fill="#001122" stroke="#00152b"></path><path d="M125.8 323.2L438.5 362.8L313.5 225.2Z" fill="#001122" stroke="#00152b"></path><path d="M292.5 211.6L125.8 323.2L313.5 225.2Z" fill="#001122" stroke="#00152b"></path><path d="M653 0L474.3 0L662 108.6Z" fill="#001122" stroke="#00152b"></path><path d="M292.5 211.6L159.8 164.6L125.8 323.2Z" fill="#001122" stroke="#00152b"></path><path d="M0 649.4L101.8 768L196.8 709.4Z" fill="#001122" stroke="#00152b"></path><path d="M196.8 709.4L101.8 768L401.5 768Z" fill="#001122" stroke="#00152b"></path><path d="M944.5 768L1216.3 768L1181.3 634.4Z" fill="#001122" stroke="#00152b"></path><path d="M1181.3 634.4L1366 536.4L1189.3 444.8Z" fill="#001122" stroke="#00152b"></path><path d="M0 401.2L0 649.4L84.8 458.8Z" fill="#001122" stroke="#00152b"></path><path d="M200.8 0L159.8 164.6L292.5 211.6Z" fill="#001122" stroke="#00152b"></path><path d="M474.3 0L322.5 0L517.3 167.6Z" fill="#001122" stroke="#00152b"></path><path d="M84.8 458.8L0 649.4L196.8 709.4Z" fill="#001122" stroke="#00152b"></path><path d="M0 401.2L84.8 458.8L125.8 323.2Z" fill="#001122" stroke="#00152b"></path><path d="M1100.3 0L1021.5 0L1025.5 163.6Z" fill="#001122" stroke="#00152b"></path><path d="M1025.5 163.6L1021.5 0L785.8 0Z" fill="#001122" stroke="#00152b"></path><path d="M0 360.8L0 401.2L125.8 323.2Z" fill="#001122" stroke="#00152b"></path><path d="M0 196.6L0 360.8L125.8 323.2Z" fill="#001122" stroke="#00152b"></path><path d="M0 649.4L0 768L101.8 768Z" fill="#001122" stroke="#00152b"></path><path d="M1189.3 444.8L1366 452.8L1154.3 331.2Z" fill="#001122" stroke="#00152b"></path><path d="M1262.3 56.6L1100.3 0L1025.5 163.6Z" fill="#001122" stroke="#00152b"></path><path d="M1366 768L1366 536.4L1181.3 634.4Z" fill="#001122" stroke="#00152b"></path><path d="M1262.3 56.6L1025.5 163.6L1154.3 331.2Z" fill="#001122" stroke="#00152b"></path><path d="M1366 536.4L1366 452.8L1189.3 444.8Z" fill="#001122" stroke="#00152b"></path><path d="M322.5 0L200.8 0L292.5 211.6Z" fill="#001122" stroke="#00152b"></path><path d="M159.8 164.6L0 196.6L125.8 323.2Z" fill="#001122" stroke="#00152b"></path><path d="M1216.3 768L1366 768L1181.3 634.4Z" fill="#001122" stroke="#00152b"></path><path d="M0 0L0 196.6L159.8 164.6Z" fill="#001122" stroke="#00152b"></path><path d="M1366 452.8L1366 225.2L1154.3 331.2Z" fill="#001122" stroke="#00152b"></path><path d="M1366 225.2L1262.3 56.6L1154.3 331.2Z" fill="#001122" stroke="#00152b"></path><path d="M1366 225.2L1366 97.6L1262.3 56.6Z" fill="#001122" stroke="#00152b"></path><path d="M200.8 0L0 0L159.8 164.6Z" fill="#001122" stroke="#00152b"></path><path d="M1366 97.6L1366 0L1262.3 56.6Z" fill="#001122" stroke="#00152b"></path><path d="M1262.3 56.6L1366 0L1100.3 0Z" fill="#001122" stroke="#00152b"></path></g></svg>