<svg id="visual" viewBox="0 0 900 600" width="900" height="600" xmlns="http://www.w3.org/2000/svg" xmlns:xlink="http://www.w3.org/1999/xlink" version="1.1"><rect x="0" y="0" width="900" height="600" fill="#d8e7f3"></rect><path d="M0 402L16.7 412.3C33.3 422.7 66.7 443.3 100 446C133.3 448.7 166.7 433.3 200 428.2C233.3 423 266.7 428 300 437.8C333.3 447.7 366.7 462.3 400 473.8C433.3 485.3 466.7 493.7 500 482.5C533.3 471.3 566.7 440.7 600 426.5C633.3 412.3 666.7 414.7 700 419.7C733.3 424.7 766.7 432.3 800 442.8C833.3 453.3 866.7 466.7 883.3 473.3L900 480L900 601L883.3 601C866.7 601 833.3 601 800 601C766.7 601 733.3 601 700 601C666.7 601 633.3 601 600 601C566.7 601 533.3 601 500 601C466.7 601 433.3 601 400 601C366.7 601 333.3 601 300 601C266.7 601 233.3 601 200 601C166.7 601 133.3 601 100 601C66.7 601 33.3 601 16.7 601L0 601Z" fill="#fcaf3c"></path><path d="M0 443L16.7 439.3C33.3 435.7 66.7 428.3 100 423C133.3 417.7 166.7 414.3 200 429.2C233.3 444 266.7 477 300 480.8C333.3 484.7 366.7 459.3 400 457.3C433.3 455.3 466.7 476.7 500 480C533.3 483.3 566.7 468.7 600 465.3C633.3 462 666.7 470 700 467C733.3 464 766.7 450 800 441.8C833.3 433.7 866.7 431.3 883.3 430.2L900 429L900 601L883.3 601C866.7 601 833.3 601 800 601C766.7 601 733.3 601 700 601C666.7 601 633.3 601 600 601C566.7 601 533.3 601 500 601C466.7 601 433.3 601 400 601C366.7 601 333.3 601 300 601C266.7 601 233.3 601 200 601C166.7 601 133.3 601 100 601C66.7 601 33.3 601 16.7 601L0 601Z" fill="#fba230"></path><path d="M0 509L16.7 499.5C33.3 490 66.7 471 100 477.5C133.3 484 166.7 516 200 532.7C233.3 549.3 266.7 550.7 300 534.8C333.3 519 366.7 486 400 486C433.3 486 466.7 519 500 526.2C533.3 533.3 566.7 514.7 600 502.5C633.3 490.3 666.7 484.7 700 484C733.3 483.3 766.7 487.7 800 497.3C833.3 507 866.7 522 883.3 529.5L900 537L900 601L883.3 601C866.7 601 833.3 601 800 601C766.7 601 733.3 601 700 601C666.7 601 633.3 601 600 601C566.7 601 533.3 601 500 601C466.7 601 433.3 601 400 601C366.7 601 333.3 601 300 601C266.7 601 233.3 601 200 601C166.7 601 133.3 601 100 601C66.7 601 33.3 601 16.7 601L0 601Z" fill="#fa9424"></path><path d="M0 563L16.7 557.3C33.3 551.7 66.7 540.3 100 536C133.3 531.7 166.7 534.3 200 534.7C233.3 535 266.7 533 300 527.3C333.3 521.7 366.7 512.3 400 507.8C433.3 503.3 466.7 503.7 500 509.2C533.3 514.7 566.7 525.3 600 528.8C633.3 532.3 666.7 528.7 700 523C733.3 517.3 766.7 509.7 800 505.7C833.3 501.7 866.7 501.3 883.3 501.2L900 501L900 601L883.3 601C866.7 601 833.3 601 800 601C766.7 601 733.3 601 700 601C666.7 601 633.3 601 600 601C566.7 601 533.3 601 500 601C466.7 601 433.3 601 400 601C366.7 601 333.3 601 300 601C266.7 601 233.3 601 200 601C166.7 601 133.3 601 100 601C66.7 601 33.3 601 16.7 601L0 601Z" fill="#f98619"></path><path d="M0 571L16.7 566.3C33.3 561.7 66.7 552.3 100 555.5C133.3 558.7 166.7 574.3 200 577.8C233.3 581.3 266.7 572.7 300 565.3C333.3 558 366.7 552 400 548.3C433.3 544.7 466.7 543.3 500 547.2C533.3 551 566.7 560 600 565.3C633.3 570.7 666.7 572.3 700 573.7C733.3 575 766.7 576 800 575.8C833.3 575.7 866.7 574.3 883.3 573.7L900 573L900 601L883.3 601C866.7 601 833.3 601 800 601C766.7 601 733.3 601 700 601C666.7 601 633.3 601 600 601C566.7 601 533.3 601 500 601C466.7 601 433.3 601 400 601C366.7 601 333.3 601 300 601C266.7 601 233.3 601 200 601C166.7 601 133.3 601 100 601C66.7 601 33.3 601 16.7 601L0 601Z" fill="#f7770f"></path></svg>